<?xml version="1.0" ?><svg data-name="Layer 3" id="Layer_3" viewBox="0 0 48 48" xmlns="http://www.w3.org/2000/svg"><defs><style>.cls-1{fill:#fcc960;}.cls-2{fill:#c25e43;}.cls-3{fill:#e57c4f;}.cls-4{fill:#686886;opacity:0.5;}.cls-5{fill:#ffeae5;opacity:0.42;}</style></defs><circle class="cls-1" cx="24" cy="24" r="22"/><path class="cls-2" d="M41.787,11.06672a21.94,21.94,0,0,1,3.14123,6.19038,2.59671,2.59671,0,0,1-1.2483-.266A9.29475,9.29475,0,0,1,41.214,15.70183a1.75351,1.75351,0,0,1-.61393-.82879,2.13885,2.13885,0,0,1-.02046-.67531q.09209-.98227.27626-1.93386a1.63681,1.63681,0,0,1,.19441-.58322A1.75249,1.75249,0,0,1,41.787,11.06672Z"/><path class="cls-2" d="M23.88094,36.58541a2.26084,2.26084,0,0,1,1.52458,2.63987,2.33767,2.33767,0,0,1-2.23059,1.852,1.25981,1.25981,0,0,1-.20464-.02047,2.29856,2.29856,0,0,1-1.8213-2.08733,2.22532,2.22532,0,0,1,.09209-.85949A2.2562,2.2562,0,0,1,23.88094,36.58541Z"/><path class="cls-2" d="M9.13658,24.11257a29.39673,29.39673,0,0,0-.18417,7.12149,3.47172,3.47172,0,0,1-1.61666-.04093A4.26724,4.26724,0,0,1,4.32753,26.558a2.63513,2.63513,0,0,1,.08185-.40928,3.15123,3.15123,0,0,1,3.9598-2.3329A4.105,4.105,0,0,1,9.13658,24.11257Z"/><path class="cls-2" d="M21.456,2.14439A22.02361,22.02361,0,0,1,37.30537,6.48277a20.21129,20.21129,0,0,1-5.71971.08186,10.92626,10.92626,0,0,1-2.21012-.48091A14.24218,14.24218,0,0,1,27.851,5.42887C26.5822,4.83542,25.33389,4.23173,24.07535,3.628a15.75093,15.75093,0,0,1-1.74968-.91065C22.1108,2.58437,21.79361,2.39,21.456,2.14439Z"/><path class="cls-2" d="M21.39456,12.8471a3.31688,3.31688,0,0,1,2.40453.16371,3.4353,3.4353,0,0,1,1.86223,3.02868,3.50741,3.50741,0,0,1-.24557,1.31993,3.3783,3.3783,0,0,1-6.528-1.06413,3.23463,3.23463,0,0,1,.08186-.9925A3.53118,3.53118,0,0,1,21.39456,12.8471Z"/><path class="cls-3" d="M43.34048,16.46178c-.12743-.27887-1.28741-.73468-1.79565-1.15a1.353,1.353,0,0,1-.44565-.55357,1.61164,1.61164,0,0,1-.01-.5121q.069-.73968.19285-1.46286a.512.512,0,0,0-1.00921-.17287c-.08693.50661-.15288,1.01971-.20284,1.5423a2.59193,2.59193,0,0,0,.037.85484,2.25118,2.25118,0,0,0,.78339,1.09065,4.92042,4.92042,0,0,0,2.0427,1.01567A.50657.50657,0,0,0,43.34048,16.46178Z"/><path class="cls-3" d="M31.88535,40.21539a.51133.51133,0,0,1-.3847-.84884,25.10884,25.10884,0,0,0,2.35317-3.166c.22182-.35222.44265-.71344.65349-1.08515a31.3485,31.3485,0,0,0,3.06161-7.48268,32.52143,32.52143,0,0,0,1.00622-5.96185.51194.51194,0,0,1,1.02121.07394,33.57944,33.57944,0,0,1-1.0392,6.15171,32.32788,32.32788,0,0,1-3.16153,7.726c-.21783.3832-.44666.75841-.67648,1.12313A26.08077,26.08077,0,0,1,32.27005,40.041.51.51,0,0,1,31.88535,40.21539Z"/><path class="cls-3" d="M27.90245,43.74764a.51139.51139,0,0,1-.28278-.93777,18.53146,18.53146,0,0,0,2.29422-1.81559.51125.51125,0,1,1,.69346.75141,19.36876,19.36876,0,0,1-2.42212,1.91651A.50672.50672,0,0,1,27.90245,43.74764Z"/><path class="cls-3" d="M18.79561,45.385a22.59963,22.59963,0,0,1-4.57369-1.66783,14.07533,14.07533,0,0,1-3.66309-4.70677l-.03066-.09206a.51047.51047,0,0,1,.95157-.35815c.15344.29676.307.58323.47063.85951A10.92908,10.92908,0,0,0,17.885,44.5971c.17393.05115.3581.11254.55251.16368A.5113.5113,0,0,1,18.79561,45.385Z"/><path class="cls-3" d="M9.176,33.41368a.512.512,0,0,1-.5036-.42617c-.09293-.55207-.16588-1.12462-.22883-1.69767a.51167.51167,0,0,1,1.01721-.11192c.061.55307.1299,1.10564.22083,1.63873a.51237.51237,0,0,1-.41867.59A.56742.56742,0,0,1,9.176,33.41368Z"/><path class="cls-3" d="M9.13806,24.624a.5631.5631,0,0,1-.07094-.0045.51109.51109,0,0,1-.43666-.57655A32.34137,32.34137,0,0,1,9.42984,20.102l.03-.10292c.029-.09992.057-.19485.07894-.28978a.51191.51191,0,0,1,.99722.23182c-.027.11292-.059.22583-.09392.34374a31.45151,31.45151,0,0,0-.79838,3.897A.51092.51092,0,0,1,9.13806,24.624Z"/><path class="cls-3" d="M13.57761,12.23318a.51182.51182,0,0,1-.43467-.7819,26.01284,26.01284,0,0,1,1.70168-2.42111.51139.51139,0,1,1,.80138.6355,25.2428,25.2428,0,0,0-1.63373,2.32619A.51069.51069,0,0,1,13.57761,12.23318Z"/><path class="cls-3" d="M16.33046,30.49745a.51253.51253,0,0,1-.5066-.589c.15088-.98473.32774-1.97446.52559-2.94171a.51206.51206,0,0,1,1.00322.20584c-.19585.95026-.36972,1.92251-.5176,2.89075A.512.512,0,0,1,16.33046,30.49745Z"/><path class="cls-3" d="M27.85049,32.98352a.51139.51139,0,0,1-.47863-.692c.66649-1.76913,1.29-3.66865,1.85356-5.64511a.51114.51114,0,1,1,.98324.27978c-.56956,2.00394-1.20207,3.93044-1.87954,5.726A.51136.51136,0,0,1,27.85049,32.98352Z"/><path class="cls-3" d="M30.14071,25.75665a.50148.50148,0,0,1-.1289-.01649.51159.51159,0,0,1-.36672-.624c.11691-.44915.22583-.90179.33374-1.349l.51161.059.48262.17986c-.10891.45365-.21883.91229-.33674,1.36793A.51215.51215,0,0,1,30.14071,25.75665Z"/><path class="cls-3" d="M37.94963,12.13076a.51315.51315,0,0,1-.23582-.05746c-.75941-.39419-1.59875-.79188-2.49506-1.18208a.51151.51151,0,0,1,.40769-.93827c.91828.39969,1.77861.80737,2.559,1.21206a.51157.51157,0,0,1-.23581.96575Z"/><path class="cls-3" d="M32.78265,9.86952a.5084.5084,0,0,1-.17686-.03148c-1.35794-.50061-2.85078-.97474-4.43954-1.4089a50.0484,50.0484,0,0,0-6.62085-1.306.51161.51161,0,0,1,.1279-1.0152A51.12923,51.12923,0,0,1,28.433,7.44141c1.61974.44265,3.14155.92578,4.52647,1.43638a.51173.51173,0,0,1-.17686.99173Z"/><path class="cls-3" d="M45.99237,23.8056h-.02049a.54164.54164,0,0,1-.27622-.08187c-.78789-.52185-1.7088-1.06411-2.824-1.678a.51282.51282,0,1,1,.49112-.90042c.99254.54226,1.852,1.04362,2.58873,1.52456C45.97188,23.04844,45.99237,23.427,45.99237,23.8056Z"/><path class="cls-3" d="M42.667,35.61334c-.10229.174-.20465.34792-.31719.51161-.58323.03072-1.21761.041-1.94411.041h-.68553a.51313.51313,0,0,1-.5116-.5116.53541.53541,0,0,1,.52185-.5116c1.146.01024,2.64411-.27932,2.9161-.05115A.36558.36558,0,0,1,42.667,35.61334Z"/><path class="cls-3" d="M36.79453,36.03264l-.035-.001q-.91278-.06144-1.85755-.15488l-.21883-.024c-.48662-.054-.98024-.10891-1.47385-.17186a.51217.51217,0,0,1-.44266-.57256.51746.51746,0,0,1,.57256-.44265c.48762.06245.97624.11641,1.45686.16987l.21284.02348c.61252.06045,1.22.11141,1.81858.15138a.51166.51166,0,0,1-.033,1.0222Z"/><path class="cls-3" d="M6.619,27.827a.51256.51256,0,0,1-.22882-.054q-1.17659-.58979-2.23026-1.17758c-.46064-.2558-.91229-.5151-1.34495-.77739a.51153.51153,0,1,1,.52958-.87532c.42267.2553.86233.5086,1.313.75891q1.03569.57855,2.1903,1.1561A.51162.51162,0,0,1,6.619,27.827Z"/><path class="cls-3" d="M9.64817,24.18418a.51588.51588,0,0,0-.28647-.53208,4.11883,4.11883,0,0,0-.63438-.2558,1.90611,1.90611,0,0,0-.22514-.07157,3.71925,3.71925,0,0,0-2.8752.35809,3.54779,3.54779,0,0,0-1.49383,1.719,2.92733,2.92733,0,0,0-.2149.59347,3.04183,3.04183,0,0,0-.08187.41949c0,.02048-.01024.05115-.01024.07163a4.76421,4.76421,0,0,0,3.3868,5.19789,4.03777,4.03777,0,0,0,1.03344.133,2.13646,2.13646,0,0,0,.2558-.01024,3.3889,3.3889,0,0,0,.56275-.07163.51473.51473,0,0,0,.39907-.5116v-.04091A28.81472,28.81472,0,0,1,9.64817,24.18418ZM7.46874,30.702a3.72476,3.72476,0,0,1-2.66031-3.75514c.01025-.10229.02049-.20465.03073-.31719a1.70262,1.70262,0,0,1,.07157-.35816,2.597,2.597,0,0,1,.12278-.36833A2.56121,2.56121,0,0,1,7.479,24.20467a3.28228,3.28228,0,0,1,.75716.10229c.1126.03073.22514.07163.33767.11254a29.71409,29.71409,0,0,0-.17392,6.3746A3.6413,3.6413,0,0,1,7.46874,30.702Z"/><path class="cls-3" d="M26.1422,15.68137v-.01025a3.83864,3.83864,0,0,0-2.118-3.12075,3.67707,3.67707,0,0,0-1.7906-.3581,4.19036,4.19036,0,0,0-.99254.16368.86674.86674,0,0,0-.22508.09212h-.01024A3.98607,3.98607,0,0,0,18.46817,15.18a3.16567,3.16567,0,0,0-.08181.63438,2.80774,2.80774,0,0,0-.01024.5116,4.354,4.354,0,0,0,.06139.5116,3.98251,3.98251,0,0,0,2.45565,2.94683c.09212.03066.174.06139.266.09205a3.75921,3.75921,0,0,0,.89018.14327.99247.99247,0,0,0,.174.01024,3.99094,3.99094,0,0,0,3.663-2.47614,3.5549,3.5549,0,0,0,.22513-.79812,4.14461,4.14461,0,0,0,.06139-.71626v-.01018A1.99636,1.99636,0,0,0,26.1422,15.68137ZM24.94507,17.165a2.94088,2.94088,0,0,1-3.47886,1.72922h-.02048a2.94319,2.94319,0,0,1-2.04641-2.599v-.05115a2.3535,2.3535,0,0,1,.07163-.81855,2.997,2.997,0,0,1,2.04641-2.08731h.04091a3.11983,3.11983,0,0,1,.84927-.133,2.67,2.67,0,0,1,1.16647.266,2.9336,2.9336,0,0,1,1.57571,2.56819A3.06024,3.06024,0,0,1,24.94507,17.165Z"/><path class="cls-3" d="M21.39452,13.3638a.50707.50707,0,0,1-.5116-.50661.55533.55533,0,0,1,.039-.20534A30.33465,30.33465,0,0,1,22.86937,8.644a.51187.51187,0,0,1,.87732.52759,29.28634,29.28634,0,0,0-1.87254,3.8535A.51381.51381,0,0,1,21.39452,13.3638Z"/><path class="cls-3" d="M21.90612,23.1202a.51159.51159,0,0,1-.5116-.50361A8.70262,8.70262,0,0,0,20.824,19.567a.51184.51184,0,0,1,.95726-.36271,9.84934,9.84934,0,0,1,.6365,3.39635.5117.5117,0,0,1-.50361.5196Z"/><path class="cls-3" d="M27.78754,17.01745a5.66093,5.66093,0,0,1-2.33518-.5111.51124.51124,0,1,1,.41767-.93328,4.58985,4.58985,0,0,0,3.15155.2578.51162.51162,0,0,1,.2578.99023A5.88563,5.88563,0,0,1,27.78754,17.01745Z"/><path class="cls-3" d="M25.58969,37.3528a2.50025,2.50025,0,0,0-.66511-.79806,2.46916,2.46916,0,0,0-.9106-.46046,2.76243,2.76243,0,0,0-3.264,1.852,1.95781,1.95781,0,0,0-.10236.55251,2.72657,2.72657,0,0,0-.01024.50136v.02048a3.95264,3.95264,0,0,0,.09211.50136,2.87255,2.87255,0,0,0,1.94412,1.99526,1.57735,1.57735,0,0,0,.21483.0409,1.20175,1.20175,0,0,0,.27628.03073h.05115a2.56232,2.56232,0,0,0,.48094-.05115,2.90655,2.90655,0,0,0,2.21009-2.21015c.02048-.1023.03073-.20459.04091-.307A3.03,3.03,0,0,0,25.58969,37.3528Zm-2.38408,3.21288a.77264.77264,0,0,1-.15344-.01025,1.53705,1.53705,0,0,1-.91067-.52184,1.91383,1.91383,0,0,1-.48094-1.105,1.53416,1.53416,0,0,1,.07163-.66511,1.74284,1.74284,0,0,1,2.01575-1.18689,1.51792,1.51792,0,0,1,.79806.532,1.88945,1.88945,0,0,1,.35816,1.51439,1.45785,1.45785,0,0,1-.09211.27622A1.78266,1.78266,0,0,1,23.20561,40.56568Z"/><path class="cls-3" d="M23.22609,43.52281a.51215.51215,0,0,1-.5116-.49811l-.051-1.934,1.0232-.02348.051,1.9305a.51253.51253,0,0,1-.49861.52509Z"/><path class="cls-3" d="M18.5897,39.70628a.51159.51159,0,0,1-.044-1.0212l2.558-.22533a.51158.51158,0,0,1,.08993,1.01921l-2.558.22532C18.62068,39.70578,18.60469,39.70628,18.5897,39.70628Z"/><path class="cls-3" d="M24.95575,37.81326a.51132.51132,0,0,1-.3857-.84734l1.09414-1.25852a.51135.51135,0,1,1,.7714.67147l-1.09414,1.25852A.50868.50868,0,0,1,24.95575,37.81326Z"/><path class="cls-3" d="M17.42961,16.88106c-.09293,0-.18586-.001-.27979-.0025a.5117.5117,0,0,1-.5026-.5206.50013.50013,0,0,1,.52059-.50261,13.938,13.938,0,0,0,1.6667-.06844.51135.51135,0,1,1,.10592,1.01721A14.55994,14.55994,0,0,1,17.42961,16.88106Z"/><path class="cls-3" d="M15.80887,16.75565c-.017,0-.034-.001-.051-.00249a3.55745,3.55745,0,0,1-.35772-.05846.51166.51166,0,0,1,.20184-1.00322c.08493.017.17087.035.2558.04347a.51155.51155,0,0,1-.049,1.0207Z"/><path class="cls-3" d="M34.19855,7.24056a.5116.5116,0,0,1-.001-1.0232A19.97219,19.97219,0,0,0,36.237,6.108a.51145.51145,0,1,1,.10792,1.0172,20.90269,20.90269,0,0,1-2.14533.11541Z"/><path class="cls-3" d="M32.02424,7.12815a.54318.54318,0,0,1-.057-.003l-.44766-.05346a11.39766,11.39766,0,0,1-2.3102-.5036,13.0338,13.0338,0,0,1-1.4109-.598l-.16487-.07794c-1.05818-.49511-2.10336-.99722-3.15155-1.50133L23.8536,4.089c-.44465-.20684-.90029-.42217-1.336-.66449a.51171.51171,0,0,1,.49762-.8943c.41367.23032.84734.43466,1.276.63351l.63451.30476c1.04419.50261,2.08637,1.00322,3.14155,1.49733l.16787.07894a12.14128,12.14128,0,0,0,1.302.55407,10.46814,10.46814,0,0,0,2.11135.45814l.43067.051a.51163.51163,0,0,1-.055,1.0202Z"/><path class="cls-4" d="M45.99237,23.8056V24A21.80854,21.80854,0,0,1,42.667,35.61334c-.10229.174-.20465.34792-.31719.51161A21.99589,21.99589,0,0,1,23.9935,45.99888a22.31159,22.31159,0,0,1-5.19789-.61389,22.59963,22.59963,0,0,1-4.57369-1.66783,22.25086,22.25086,0,0,1-8.33913-7.234,21.60811,21.60811,0,0,0,4.64538,2.43522c.47063.18417.94133.34786,1.4222.50136a21.77583,21.77583,0,0,0,6.41551.95158,20.59533,20.59533,0,0,0,2.65012-.16369,10.30549,10.30549,0,0,0,1.1255-.174,18.10079,18.10079,0,0,0,2.67055-.63438,10.54652,10.54652,0,0,0,1.13574-.37858,21.72642,21.72642,0,0,0,6.876-4.08257v-.01024A1.88528,1.88528,0,0,0,33.1,34.6925h.01018a22.38976,22.38976,0,0,0,3.45843-3.95979.01.01,0,0,0,.01024-.01024,22.0263,22.0263,0,0,0,2.40457-4.68629c.01018-.01024,0-.01024,0-.01024a21.56486,21.56486,0,0,0,1.3813-7.65354,22.76756,22.76756,0,0,0-.2558-3.36632c-.02049-.10236-.04091-.20465-.05115-.29677a21.90966,21.90966,0,0,0-3.58121-8.82,21.97424,21.97424,0,0,1,9.47487,16.78056C45.97188,23.04844,45.99237,23.427,45.99237,23.8056Z"/><circle class="cls-5" cx="12.22666" cy="14.27958" r="6.65082"/></svg>