<?xml version="1.0" ?><svg data-name="Layer 3" id="Layer_3" viewBox="0 0 48 48" xmlns="http://www.w3.org/2000/svg"><defs><style>.cls-1{fill:#ffd38b;}.cls-2{fill:#ff7a6d;}.cls-3{fill:#ff604f;}.cls-4{fill:#c94f48;}.cls-5{fill:#c9565a;}.cls-6{fill:#686886;opacity:0.5;}.cls-7{fill:#ffeae5;opacity:0.25;}</style></defs><path class="cls-1" d="M46,24A22.00645,22.00645,0,0,1,24,46c-.64466,0-1.28931-.03073-1.92373-.08188a21.81351,21.81351,0,0,1-8.77949-2.70135,22.03935,22.03935,0,0,1-6.80467-5.894c-.21491-.28654-.40933-.56284-.60375-.83908a21.64129,21.64129,0,0,1-3.28461-7.39818A21.35651,21.35651,0,0,1,2,24,21.95731,21.95731,0,0,1,11.21954,6.10326c.35812-.25581.7163-.50138,1.08465-.72653a21.66642,21.66642,0,0,1,5.15719-2.374c.18424-.0614.35818-.11255.54236-.1637.16369-.05115.307-.09212.47072-.133h.01018A21.33351,21.33351,0,0,1,24,2,21.83546,21.83546,0,0,1,36.48373,5.88836V5.8986a1.09483,1.09483,0,0,1,.22515.15351.96.96,0,0,1,.18418.12279,22.26468,22.26468,0,0,1,4.3386,4.15441A21.87243,21.87243,0,0,1,46,24Z"/><path class="cls-2" d="M41.23166,10.32931c-4.8298-.79817-10.01772-1.146-11.07164,1.00277-.49114.98235.38884,1.4735.19442,3.23353a4.96309,4.96309,0,0,1-.39908,1.46325c7.05024-1.04374,9.31166,3.81672,6.91722,10.24273A11.27126,11.27126,0,0,1,30.774,32.12465c-4.58417,2.35348.71629,5.61766-2.68093,9.3116q-3.00831,2.241-6.01675,4.48187a22.16,22.16,0,0,0,10.17117-1.52464A11.81641,11.81641,0,0,1,33.987,39.51253c1.74979-1.35065,4.67628-3.0288,5.34142.25581C47.28931,32.493,48.24093,18.63815,41.23166,10.32931Zm.02042,9.854c.92095-2.2,3.44843-.266,2.70141,1.56555C43.0326,23.95909,40.51536,21.99439,41.25208,20.18327Z"/><path class="cls-3" d="M24,2a21.49334,21.49334,0,0,0-5.99626.83907v.0614a5.56079,5.56079,0,0,1-1.934,3.26419c-1.34047,1.20743-3.05953,2.1079-4.14418,3.479-1.65767,2.58886,1.24841,5.41306.70605,8.01211-2.89583,4.18514,3.24371,8.053,6.98886,8.39071a2.42842,2.42842,0,0,0,1.24834-.03073c1.23816-.3786,1.76-1.88276,1.97488-2.38414,1.52464-3.80654,5.74051-4.666,7.11164-7.60278a4.96309,4.96309,0,0,0,.39908-1.46325c.19442-1.76-.68556-2.25118-.19442-3.23353,1.05392-2.14881,6.24184-1.80094,11.07164-1.00277A21.95648,21.95648,0,0,0,24,2Zm5.43349,6.4465a3.13309,3.13309,0,0,1-3.3051.78792,2.63366,2.63366,0,0,1-.46048-.20466A1.93128,1.93128,0,0,1,25.146,5.96a3.17774,3.17774,0,0,1,3.77582-.573A1.91507,1.91507,0,0,1,29.43349,8.4465Z"/><path class="cls-4" d="M27.76052,6.68659a.54842.54842,0,0,1,.1466.87617.901.901,0,0,1-1.0825.16546.54842.54842,0,0,1-.1466-.87617A.901.901,0,0,1,27.76052,6.68659Z"/><path class="cls-2" d="M13.29678,43.21677a21.96177,21.96177,0,0,1-10.693-14.13122c.4809.06145,1.05392.133,1.52464.20466a4.60161,4.60161,0,0,1,1.65767.46048,4.4787,4.4787,0,0,1,1.146,1.1358C8.467,32.8307,9.961,34.81582,11.42421,36.82142c.01024,0,.02048.02042.02048.03067h.01018a12.388,12.388,0,0,1,1.40186,2.26141A6.97186,6.97186,0,0,1,13.29678,43.21677Z"/><path class="cls-5" d="M29.21071,37.89589c-.64071-.02351-.52266-.84434-.672-1.285-.34973-1.65481-.74594-3.53,2.00256-4.94192a11.21066,11.21066,0,0,0,5.06082-4.08253.51152.51152,0,0,1,.85838.55659,12.18573,12.18573,0,0,1-5.48851,4.45326c-2.01653,1.03775-1.7842,2.13795-1.432,3.80324C29.62171,36.89871,30.0143,37.83329,29.21071,37.89589Z"/><path class="cls-5" d="M36.86814,26.779a.51427.51427,0,0,1-.47265-.708c.28865-.45016.2229-1.58492,1.01022-1.42151a.51174.51174,0,0,1,.34779.63458C37.51874,25.79847,37.53009,26.70443,36.86814,26.779Z"/><path class="cls-5" d="M13.38872,41.61768a.51162.51162,0,0,1-.50813-.45766,7.97375,7.97375,0,0,0-1.83718-4.00608.511.511,0,0,1,.11293-.71449C12.10787,35.564,15.015,41.66528,13.38872,41.61768Z"/><path class="cls-5" d="M6.14149,30.52175c-.25191.01177-.41663-.22164-.62305-.33525a4.50122,4.50122,0,0,0-1.55537-.40721A.51161.51161,0,0,1,4.11,28.767l.08493.011c.71151.1069,2.92024.48062,2.33591,1.56384A.50948.50948,0,0,1,6.14149,30.52175Z"/><path class="cls-5" d="M24.69949,41.244a12.889,12.889,0,0,1-2.42573-.25482.51161.51161,0,1,1,.19086-1.00527,11.97257,11.97257,0,0,0,2.36028.23583.51182.51182,0,0,1,.51163.50463A.53814.53814,0,0,1,24.69949,41.244Z"/><path class="cls-5" d="M19.08857,40.14126c-4.01272-1.051-9.11969-2.79107-12.16864-5.82127a.51163.51163,0,1,1,.71247-.73446c2.95432,2.9193,7.66448,4.4473,11.59608,5.55194A.51369.51369,0,0,1,19.08857,40.14126Z"/><path class="cls-5" d="M43.43162,18.94511c-2.60979-1.34852-3.83512,2.89326-1.64729,4.04186C44.39763,24.31813,45.61643,20.10049,43.43162,18.94511Zm.041,2.61953-.01024.01025c-.64861,1.56334-2.23653-.05-1.72922-1.21771C42.39458,18.81729,43.98272,20.37919,43.47259,21.56464Z"/><path class="cls-6" d="M46,24A22.00645,22.00645,0,0,1,24,46c-.64466,0-1.28931-.03073-1.92373-.08188a21.81351,21.81351,0,0,1-8.77949-2.70135,22.03935,22.03935,0,0,1-6.80467-5.894c-.21491-.28654-.40933-.56284-.60375-.83908A21.99156,21.99156,0,0,0,36.48373,5.8986V5.88836c.07164.05115.14327.10236.22515.16375a.96.96,0,0,1,.18418.12279,22.26468,22.26468,0,0,1,4.3386,4.15441A21.87243,21.87243,0,0,1,46,24Z"/><circle class="cls-7" cx="12.23256" cy="14.27907" r="6.65116"/><path class="cls-4" d="M30.38511,13.55253a.5067.5067,0,0,0-.51163.51163,3.40806,3.40806,0,0,1-.03067.44,3.88265,3.88265,0,0,1-.35817,1.29956c-.01018.02048-.02043.03073-.02043.05115a8.95265,8.95265,0,0,1-2.96746,2.97771,10.98512,10.98512,0,0,0-4.13393,4.60465l-.05115.12278c-.21491.55254-.67539,1.68834-1.59628,1.96464a2.12816,2.12816,0,0,1-1.054.02048c-2.4456-.22515-5.894-2.04651-6.94789-4.29768a3.14169,3.14169,0,0,1,.33763-3.3051.50573.50573,0,0,0,.08188-.18418,5.31692,5.31692,0,0,0-.20467-2.52747.51253.51253,0,0,0-.63441-.34788.50461.50461,0,0,0-.34787.63442,4.38384,4.38384,0,0,1,.20466,1.9339,4.14908,4.14908,0,0,0-.36842,4.22606c1.21768,2.59911,5.014,4.62513,7.72557,4.8707a3.12228,3.12228,0,0,0,.67539.08188,2.80221,2.80221,0,0,0,.82883-.12278,4.01887,4.01887,0,0,0,2.25118-2.55814l.05115-.12279c.76744-1.934,2.31256-3.06977,3.7963-4.1749a9.9963,9.9963,0,0,0,3.16182-3.15165,1.2543,1.2543,0,0,0,.14327-.25581,4.70222,4.70222,0,0,0,.29673-.82883,5.0096,5.0096,0,0,0,.15351-.79811,5.28466,5.28466,0,0,0,.03066-.5526A.51312.51312,0,0,0,30.38511,13.55253Z"/><path class="cls-4" d="M18.00374,6.45113a.51366.51366,0,0,1-.50139.41957h-.09212c-.38884-.07163-.78786-.12278-1.17671-.18417-.02048,0-.03072-.01025-.05121-.01025a.42842.42842,0,0,1-.16369-.01024c-.39909-.05115-.79811-.09212-1.21768-.133-.95162-.08188-1.97488-.133-3.13116-.15345a.49783.49783,0,0,1-.12279-.01024.50515.50515,0,0,1-.32745-.26606c.35812-.25581.7163-.50138,1.08465-.72653,1.33022.03073,2.49675.11254,3.5814.24557.08188.01024.15351.02048.23533.03073a.34076.34076,0,0,1,.10236,0c.307.04091.62417.08188.93114.133.14327.02042.28654.0409.42981.07163A.51764.51764,0,0,1,18.00374,6.45113Z"/><path class="cls-4" d="M21.99046,8.17351a.50964.50964,0,0,1-.19735-.03947q-.72472-.30279-1.46544-.54811a.5116.5116,0,0,1,.32177-.97129q.77718.25707,1.53838.57508a.51167.51167,0,0,1-.19736.98379Z"/><path class="cls-4" d="M30.467,6.72743a1.43188,1.43188,0,0,0-.06139-.28648,2.2779,2.2779,0,0,0-.55253-.96186,2.87431,2.87431,0,0,0-.67539-.53211,3.64865,3.64865,0,0,0-4.41023.67532,2.46262,2.46262,0,0,0-.64465,2.07724A2.50535,2.50535,0,0,0,25.361,9.43909a.215.215,0,0,0,.06139.0409,4.01644,4.01644,0,0,0,.53211.23533,1.94369,1.94369,0,0,0,.399.11261,3.53964,3.53964,0,0,0,.79817.09206,3.614,3.614,0,0,0,2.67068-1.12556V8.78419A2.45318,2.45318,0,0,0,30.467,6.72743ZM29.05489,8.1088a2.67309,2.67309,0,0,1-2.76281.64466c-.02042-.01018-.0409-.01018-.06139-.02042a2.14278,2.14278,0,0,1-.307-.14327,1.55424,1.55424,0,0,1-.79811-1.054,1.50055,1.50055,0,0,1,.399-1.22785A2.61529,2.61529,0,0,1,27.44837,5.52a2.474,2.474,0,0,1,1.21767.307A1.50662,1.50662,0,0,1,29.454,6.89119,1.45656,1.45656,0,0,1,29.05489,8.1088Z"/><path class="cls-4" d="M24.1379,11.97974a.51163.51163,0,0,1-.35374-.88136,14.03449,14.03449,0,0,0,1.87813-2.08249.51134.51134,0,1,1,.92333.43968,14.20384,14.20384,0,0,1-2.094,2.38227A.5098.5098,0,0,1,24.1379,11.97974Z"/><path class="cls-4" d="M29.6329,6.5347a.51154.51154,0,0,1-.06945-1.01826c1.50741-.20885,1.61533-.18187,1.72075-.15239a.51148.51148,0,1,1-.2678.98728c-.03748.014-.73847.09893-1.31305.17837A.48166.48166,0,0,1,29.6329,6.5347Z"/></svg>