<?xml version="1.0" ?><svg data-name="Layer 3" id="Layer_3" viewBox="0 0 48 48" xmlns="http://www.w3.org/2000/svg"><defs><style>.cls-1{fill:#75b3ff;}.cls-2{fill:#e1e8ff;opacity:0.68;}.cls-3{fill:#52526b;opacity:0.46;}.cls-4{fill:#a8c4ff;}</style></defs><path class="cls-1" d="M32.75,13.74c-.05.29-.1.58-.16.88a71.39559,71.39559,0,0,1-3.27,11.36,74.54739,74.54739,0,0,1-4.93,10.74c-.15.27-.3.53-.46.78-.21,0-.42-.01-.63-.02a.22024.22024,0,0,1-.08-.01q-.38993-.01493-.78-.06a1.74426,1.74426,0,0,1-.33-.05.67931.67931,0,0,1-.14-.02h-.03c-.18-.03-.37-.06-.56-.1-.02,0-.04-.01-.06-.01-.21-.04-.41-.09-.62-.13995a.03677.03677,0,0,0-.03-.01.2029.2029,0,0,0-.05-.01c-.01,0-.02-.01-.03-.01a.075.075,0,0,0-.05-.01q-.09-.02994-.21-.06c-.31-.08-.61005-.19-.91-.29a.14177.14177,0,0,0-.06-.02c-.1-.04-.2-.07-.29-.11-.08-.04-.15-.06-.22-.09a.41879.41879,0,0,0-.1-.04c-.18-.08-.36-.15-.52-.24a.19059.19059,0,0,0-.08-.03h-.01c-.15-.08-.32-.17-.48-.26-.09-.04-.17-.09-.25-.12994C17.3,35.72,17.2,35.66,17.09,35.59c-.13-.07-.27-.17-.4-.25a.63708.63708,0,0,0-.14-.08c-.17-.13-.35-.24-.53-.38L16,34.86c-.16-.11-.32-.24-.47-.36a1.42687,1.42687,0,0,1-.18-.15c-.03-.03-.07-.05-.1-.08-.07-.06-.14-.12-.21-.19a2.27445,2.27445,0,0,1-.28-.26c-.06-.06-.13-.11-.19-.17-.06-.07-.13-.13-.19-.2-.08-.08-.16-.16-.23-.24a.13812.13812,0,0,1-.04-.03c-.15-.16-.3-.32-.43-.49a5.30289,5.30289,0,0,1-.42-.52c-.02-.03-.05-.06-.07-.09-.11-.15-.22-.29-.31-.44a2.26425,2.26425,0,0,1-.25-.38,8.12355,8.12355,0,0,1-.45-.74c-.11-.2-.22-.39-.31-.59-.08-.17-.17-.34-.24-.52A13.34875,13.34875,0,0,1,10.67,26.09,4.1378,4.1378,0,0,1,10.6,25.6a12.17478,12.17478,0,0,1-.1-1.6c0-.26.01-.51.02-.76.01-.14.02-.28.04-.42a5.97738,5.97738,0,0,1,.08-.74A12.41851,12.41851,0,0,1,10.97,20.47c.05005-.21.12006-.43.19-.62994.04-.14.09-.27.14-.41.08-.24.18-.47.27-.71.11-.27.24-.53.37-.78.12-.23.23-.45.37-.67a.46965.46965,0,0,1,.05-.1,14.08261,14.08261,0,0,1,.97-1.45c.04-.04.07-.08.11-.12a4.63613,4.63613,0,0,1,.41-.49c.05-.06.11-.12.16-.19l.05-.05c.16-.17.32-.34.49-.51a14.08659,14.08659,0,0,1,1.94-1.58c.01-.01.03-.02.04-.03.17-.1.34-.2.5-.31.15-.09.29-.17.43994-.26.24005-.13.49005-.26.75-.38a7.98885,7.98885,0,0,1,.8-.34,9.591,9.591,0,0,1,1.21-.42,6.53295,6.53295,0,0,1,.76-.19995c.31-.07.63-.13.95-.18006h.02a7.13068,7.13068,0,0,1,.9-.11h.02a2.64162,2.64162,0,0,1,.27-.02c.28-.02.56-.03.85-.03h.07A13.39467,13.39467,0,0,1,32.75,13.74Z"/><path class="cls-1" d="M37.5,24c0,.23-.01.47-.02.7q-.015.36-.06.72a4.52747,4.52747,0,0,1-.08.63,13.45209,13.45209,0,0,1-5.28,8.77c-.25.19-.51.37-.77.53-.22.16-.44.28-.66.42-.13.06-.26.13-.4.2-.16.09-.32.16-.48.24-.33.16-.66.29-1,.43-.35.12-.69.24-1.04.34a12.45081,12.45081,0,0,1-2.59.47,2.44882,2.44882,0,0,1-.27.02c-.28.02-.56.03-.85.03h-.07c.16-.25.31-.51.46-.78a74.54739,74.54739,0,0,0,4.93-10.74,71.39559,71.39559,0,0,0,3.27-11.36c.06-.3.11-.59.16-.88.15.13.31.27.46.41.07.06.15.13.22.2a1.702,1.702,0,0,1,.19.19c.06.06.12.13.18.2a7.96944,7.96944,0,0,1,.55.61c.18.22.36.44.51.65q.25506.345.48.69a7.71466,7.71466,0,0,1,.44.72c.12994.23.26.48.39.73.15.3.28.62.4.93.07.17.13.35.19.54a7.34777,7.34777,0,0,1,.31,1.01,11.8965,11.8965,0,0,1,.29,1.49A11.75876,11.75876,0,0,1,37.5,24Z"/><path class="cls-2" d="M21.92308,16.73077a4.15385,4.15385,0,1,1-8.3077,0,3.98357,3.98357,0,0,1,.44654-1.84849V14.872c.15579-.17659.32192-.34271.48811-.5089a13.56632,13.56632,0,0,1,1.94191-1.57842,4.01486,4.01486,0,0,1,1.27729-.20771A4.15268,4.15268,0,0,1,21.92308,16.73077Z"/><path class="cls-3" d="M31.23234,12.61381A13.48407,13.48407,0,0,1,12.61381,31.23234,13.49156,13.49156,0,1,0,31.23234,12.61381Z"/><path class="cls-4" d="M33.62,14.54c-.02.09-.03.18-.05.27a72.95512,72.95512,0,0,1-3.31,11.51,74.14018,74.14018,0,0,1-5.01,10.9c-.04.07-.09.15-.13.23-1.65,2.88-5.37,8.66-8.46,8.66a2.21163,2.21163,0,0,1-.8-.14c-3.23-1.2-2.16-8.95-1.48-12.52.06.07.13.13.19.2.06.06.13.11.19.17a2.27445,2.27445,0,0,0,.28.26c.07.07.14.13.21.19-1.07,5.96-.71,10.13995.95,10.76,1.66.61,4.65-2.32,7.73-7.53.16-.25.31-.51.46-.78a74.54739,74.54739,0,0,0,4.93-10.74,71.39559,71.39559,0,0,0,3.27-11.36c.06-.3.11-.59.16-.88,1.07-5.97.71-10.16-.95-10.77s-4.65,2.32-7.73,7.53H24c-.29,0-.57.01-.85.03a2.64162,2.64162,0,0,0-.27.02c1.8-3.13,6.05-9.7,9.26-8.52C35.37,3.23,34.3,10.96,33.62,14.54Z"/></svg>